# xmcd
#
# Track frame offsets:
#	150
#	14490
#	40617
#
# Disc length: 1276 seconds
#
# Revision: 1
# Processed by: cddbd v1.5.2PL0 Copyright (c) Steve Scherf et al.
# Submitted via: audiograbber 1.83.01
#
DISCID=1904fa03
DTITLE=Limonadi Elohopea - Liekkimaja [CDS)
DYEAR=2000
DGENRE=Pop
TTITLE0=Liekkimaja
TTITLE1=Tahdotko Mut Tosiaan
TTITLE2=Liekkimaja Video
EXTD=TR.
EXTT0=
EXTT1=
EXTT2=
PLAYORDER=
